<svg version="1.1" xmlns="http://www.w3.org/2000/svg" xmlns:xlink="http://www.w3.org/1999/xlink" width="1061" height="1092"><defs/><g><g transform="translate(-390,-222) scale(1,1)"><path fill="none" stroke="#0000a0" d="M 512 232 L 1320 232 L 1320 1304 L 512 1304 L 512 232" stroke-miterlimit="10"/></g><g transform="translate(-390,-222) scale(1,1)"><path fill="#ffffff" stroke="none" d="M 512 232 L 512 254 L 567.74267578125 254 L 578.74267578125 243 L 578.74267578125 232 L 512 232"/></g><g transform="translate(-390,-222) scale(1,1)"><path fill="none" stroke="#0000a0" d="M 512 232 L 512 254 L 567.74267578125 254 L 578.74267578125 243 L 578.74267578125 232 L 512 232 L 512 232" stroke-miterlimit="10"/></g><g transform="translate(-390,-222) scale(1,1)"><g><path fill="none" stroke="none"/><text fill="#000000" stroke="none" font-family="Arial" font-size="13px" font-style="normal" font-weight="normal" text-decoration="none" x="523" y="249.5">Systen</text></g></g><g transform="translate(-390,-222) scale(1,1)"><g><path fill="none" stroke="none"/><text fill="#000000" stroke="none" font-family="Arial" font-size="13px" font-style="normal" font-weight="bold" text-decoration="none" x="517" y="249.5"></text></g></g><g transform="translate(-390,-222) scale(1,1)"><path fill="#ffffff" stroke="none" d="M 424.04118625710225 793.6800000000001 C 424.04118625710225 788.8861679360001 427.92702858204774 785 432.720458984375 785 C 437.51388938670226 785 441.39973171164775 788.8861679360001 441.39973171164775 793.6800000000001 C 441.39973171164775 798.473832064 437.51388938670226 802.36 432.720458984375 802.36 C 427.92702858204774 802.36 424.04118625710225 798.473832064 424.04118625710225 793.6800000000001 Z"/></g><g transform="translate(-390,-222) scale(1,1)"><path fill="none" stroke="#cc0066" d="M 424.04118625710225 793.6800000000001 C 424.04118625710225 788.8861679360001 427.92702858204774 785 432.720458984375 785 C 437.51388938670226 785 441.39973171164775 788.8861679360001 441.39973171164775 793.6800000000001 C 441.39973171164775 798.473832064 437.51388938670226 802.36 432.720458984375 802.36 C 427.92702858204774 802.36 424.04118625710225 798.473832064 424.04118625710225 793.6800000000001 Z" stroke-miterlimit="10"/></g><g transform="translate(-390,-222) scale(1,1)"><path fill="none" stroke="#cc0066" d="M 432.720458984375 802.36 L 432.720458984375 819.64" stroke-miterlimit="10"/></g><g transform="translate(-390,-222) scale(1,1)"><path fill="none" stroke="#cc0066" d="M 423.53064080255683 808.84 L 441.91027716619317 808.84" stroke-miterlimit="10"/></g><g transform="translate(-390,-222) scale(1,1)"><path fill="none" stroke="#cc0066" d="M 432.720458984375 819.64 L 419.95682262073865 837" stroke-miterlimit="10"/></g><g transform="translate(-390,-222) scale(1,1)"><path fill="none" stroke="#cc0066" d="M 432.720458984375 819.64 L 445.48409534801135 837" stroke-miterlimit="10"/></g><g transform="translate(-390,-222) scale(1,1)"><g><path fill="none" stroke="none"/><text fill="#000000" stroke="none" font-family="Arial" font-size="13px" font-style="normal" font-weight="bold" text-decoration="none" x="414.29638671875" y="857.5">Admin</text></g></g><g transform="translate(-390,-222) scale(1,1)"><path fill="#ffffff" stroke="none" d="M 1378.4620846946023 905.6800000000001 C 1378.4620846946023 900.8861679360001 1382.3479270195478 897 1387.141357421875 897 C 1391.9347878242022 897 1395.8206301491477 900.8861679360001 1395.8206301491477 905.6800000000001 C 1395.8206301491477 910.473832064 1391.9347878242022 914.36 1387.141357421875 914.36 C 1382.3479270195478 914.36 1378.4620846946023 910.473832064 1378.4620846946023 905.6800000000001 Z"/></g><g transform="translate(-390,-222) scale(1,1)"><path fill="none" stroke="#005128" d="M 1378.4620846946023 905.6800000000001 C 1378.4620846946023 900.8861679360001 1382.3479270195478 897 1387.141357421875 897 C 1391.9347878242022 897 1395.8206301491477 900.8861679360001 1395.8206301491477 905.6800000000001 C 1395.8206301491477 910.473832064 1391.9347878242022 914.36 1387.141357421875 914.36 C 1382.3479270195478 914.36 1378.4620846946023 910.473832064 1378.4620846946023 905.6800000000001 Z" stroke-miterlimit="10"/></g><g transform="translate(-390,-222) scale(1,1)"><path fill="none" stroke="#005128" d="M 1387.141357421875 914.36 L 1387.141357421875 931.64" stroke-miterlimit="10"/></g><g transform="translate(-390,-222) scale(1,1)"><path fill="none" stroke="#005128" d="M 1377.9515392400567 920.84 L 1396.3311756036933 920.84" stroke-miterlimit="10"/></g><g transform="translate(-390,-222) scale(1,1)"><path fill="none" stroke="#005128" d="M 1387.141357421875 931.64 L 1374.3777210582386 949" stroke-miterlimit="10"/></g><g transform="translate(-390,-222) scale(1,1)"><path fill="none" stroke="#005128" d="M 1387.141357421875 931.64 L 1399.9049937855114 949" stroke-miterlimit="10"/></g><g transform="translate(-390,-222) scale(1,1)"><g><path fill="none" stroke="none"/><text fill="#000000" stroke="none" font-family="Arial" font-size="13px" font-style="normal" font-weight="bold" text-decoration="none" x="1351.734130859375" y="969.5">Organization</text></g></g><g transform="translate(-390,-222) scale(1,1)"><path fill="#ffffff" stroke="none" d="M 1371.9652585227273 369.68 C 1371.9652585227273 364.886167936 1375.8511008476728 361 1380.64453125 361 C 1385.4379616523272 361 1389.3238039772727 364.886167936 1389.3238039772727 369.68 C 1389.3238039772727 374.473832064 1385.4379616523272 378.36 1380.64453125 378.36 C 1375.8511008476728 378.36 1371.9652585227273 374.473832064 1371.9652585227273 369.68 Z"/></g><g transform="translate(-390,-222) scale(1,1)"><path fill="none" stroke="#ffbf00" d="M 1371.9652585227273 369.68 C 1371.9652585227273 364.886167936 1375.8511008476728 361 1380.64453125 361 C 1385.4379616523272 361 1389.3238039772727 364.886167936 1389.3238039772727 369.68 C 1389.3238039772727 374.473832064 1385.4379616523272 378.36 1380.64453125 378.36 C 1375.8511008476728 378.36 1371.9652585227273 374.473832064 1371.9652585227273 369.68 Z" stroke-miterlimit="10"/></g><g transform="translate(-390,-222) scale(1,1)"><path fill="none" stroke="#ffbf00" d="M 1380.64453125 378.36 L 1380.64453125 395.64" stroke-miterlimit="10"/></g><g transform="translate(-390,-222) scale(1,1)"><path fill="none" stroke="#ffbf00" d="M 1371.4547130681817 384.84 L 1389.8343494318183 384.84" stroke-miterlimit="10"/></g><g transform="translate(-390,-222) scale(1,1)"><path fill="none" stroke="#ffbf00" d="M 1380.64453125 395.64 L 1367.8808948863636 413" stroke-miterlimit="10"/></g><g transform="translate(-390,-222) scale(1,1)"><path fill="none" stroke="#ffbf00" d="M 1380.64453125 395.64 L 1393.4081676136364 413" stroke-miterlimit="10"/></g><g transform="translate(-390,-222) scale(1,1)"><g><path fill="none" stroke="none"/><text fill="#000000" stroke="none" font-family="Arial" font-size="13px" font-style="normal" font-weight="bold" text-decoration="none" x="1350.30908203125" y="433.5">DE-Officer</text></g></g><g transform="translate(-390,-222) scale(1,1)"><path fill="#C0C0C0" stroke="none" d="M 551 1040 C 551 1030.6111584 581.6684912 1023 619.5 1023 C 657.3315088 1023 688 1030.6111584 688 1040 C 688 1049.3888416 657.3315088 1057 619.5 1057 C 581.6684912 1057 551 1049.3888416 551 1040 Z" opacity="0.2"/></g><g transform="translate(-390,-222) scale(1,1)"><path fill="#ffffff" stroke="none" d="M 544 1033 C 544 1023.6111584 574.6684912 1016 612.5 1016 C 650.3315088 1016 681 1023.6111584 681 1033 C 681 1042.3888416 650.3315088 1050 612.5 1050 C 574.6684912 1050 544 1042.3888416 544 1033 Z"/></g><g transform="translate(-390,-222) scale(1,1)"><path fill="none" stroke="#000000" d="M 544 1033 C 544 1023.6111584 574.6684912 1016 612.5 1016 C 650.3315088 1016 681 1023.6111584 681 1033 C 681 1042.3888416 650.3315088 1050 612.5 1050 C 574.6684912 1050 544 1042.3888416 544 1033 Z" stroke-miterlimit="10"/></g><g transform="translate(-390,-222) scale(1,1)"><g><path fill="none" stroke="none"/><text fill="#000000" stroke="none" font-family="Arial" font-size="13px" font-style="normal" font-weight="bold" text-decoration="none" x="570.23095703125" y="1040">Manage Users</text></g></g><g transform="translate(-390,-222) scale(1,1)"><path fill="#C0C0C0" stroke="none" d="M 879 808 C 879 798.6111584 910.340064 791 949 791 C 987.659936 791 1019 798.6111584 1019 808 C 1019 817.3888416 987.659936 825 949 825 C 910.340064 825 879 817.3888416 879 808 Z" opacity="0.2"/></g><g transform="translate(-390,-222) scale(1,1)"><path fill="#ffffff" stroke="none" d="M 872 801 C 872 791.6111584 903.340064 784 942 784 C 980.659936 784 1012 791.6111584 1012 801 C 1012 810.3888416 980.659936 818 942 818 C 903.340064 818 872 810.3888416 872 801 Z"/></g><g transform="translate(-390,-222) scale(1,1)"><path fill="none" stroke="#000000" d="M 872 801 C 872 791.6111584 903.340064 784 942 784 C 980.659936 784 1012 791.6111584 1012 801 C 1012 810.3888416 980.659936 818 942 818 C 903.340064 818 872 810.3888416 872 801 Z" stroke-miterlimit="10"/></g><g transform="translate(-390,-222) scale(1,1)"><g><path fill="none" stroke="none"/><text fill="#000000" stroke="none" font-family="Arial" font-size="13px" font-style="normal" font-weight="bold" text-decoration="none" x="898.648681640625" y="808">Add IDP Camp</text></g></g><g transform="translate(-390,-222) scale(1,1)"><path fill="#C0C0C0" stroke="none" d="M 567 608 C 567 598.6111584 617.1441024 591 679 591 C 740.8558976 591 791 598.6111584 791 608 C 791 617.3888416 740.8558976 625 679 625 C 617.1441024 625 567 617.3888416 567 608 Z" opacity="0.2"/></g><g transform="translate(-390,-222) scale(1,1)"><path fill="#ffffff" stroke="none" d="M 560 601 C 560 591.6111584 610.1441024 584 672 584 C 733.8558976 584 784 591.6111584 784 601 C 784 610.3888416 733.8558976 618 672 618 C 610.1441024 618 560 610.3888416 560 601 Z"/></g><g transform="translate(-390,-222) scale(1,1)"><path fill="none" stroke="#000000" d="M 560 601 C 560 591.6111584 610.1441024 584 672 584 C 733.8558976 584 784 591.6111584 784 601 C 784 610.3888416 733.8558976 618 672 618 C 610.1441024 618 560 610.3888416 560 601 Z" stroke-miterlimit="10"/></g><g transform="translate(-390,-222) scale(1,1)"><g><path fill="none" stroke="none"/><text fill="#000000" stroke="none" font-family="Arial" font-size="13px" font-style="normal" font-weight="bold" text-decoration="none" x="602.274169921875" y="608">Approve IDP Enrollment</text></g></g><g transform="translate(-390,-222) scale(1,1)"><path fill="#C0C0C0" stroke="none" d="M 543 496 C 543 486.6111584 565.38576 479 593 479 C 620.61424 479 643 486.6111584 643 496 C 643 505.3888416 620.61424 513 593 513 C 565.38576 513 543 505.3888416 543 496 Z" opacity="0.2"/></g><g transform="translate(-390,-222) scale(1,1)"><path fill="#ffffff" stroke="none" d="M 536 489 C 536 479.6111584 558.38576 472 586 472 C 613.61424 472 636 479.6111584 636 489 C 636 498.3888416 613.61424 506 586 506 C 558.38576 506 536 498.3888416 536 489 Z"/></g><g transform="translate(-390,-222) scale(1,1)"><path fill="none" stroke="#000000" d="M 536 489 C 536 479.6111584 558.38576 472 586 472 C 613.61424 472 636 479.6111584 636 489 C 636 498.3888416 613.61424 506 586 506 C 558.38576 506 536 498.3888416 536 489 Z" stroke-miterlimit="10"/></g><g transform="translate(-390,-222) scale(1,1)"><g><path fill="none" stroke="none"/><text fill="#000000" stroke="none" font-family="Arial" font-size="13px" font-style="normal" font-weight="bold" text-decoration="none" x="556.740478515625" y="496">Enroll IDP</text></g></g><g transform="translate(-390,-222) scale(1,1)"><path fill="#C0C0C0" stroke="none" d="M 687 496 C 687 486.6111584 731.9953776 479 787.5 479 C 843.0046224 479 888 486.6111584 888 496 C 888 505.3888416 843.0046224 513 787.5 513 C 731.9953776 513 687 505.3888416 687 496 Z" opacity="0.2"/></g><g transform="translate(-390,-222) scale(1,1)"><path fill="#ffffff" stroke="none" d="M 680 489 C 680 479.6111584 724.9953776 472 780.5 472 C 836.0046224 472 881 479.6111584 881 489 C 881 498.3888416 836.0046224 506 780.5 506 C 724.9953776 506 680 498.3888416 680 489 Z"/></g><g transform="translate(-390,-222) scale(1,1)"><path fill="none" stroke="#000000" d="M 680 489 C 680 479.6111584 724.9953776 472 780.5 472 C 836.0046224 472 881 479.6111584 881 489 C 881 498.3888416 836.0046224 506 780.5 506 C 724.9953776 506 680 498.3888416 680 489 Z" stroke-miterlimit="10"/></g><g transform="translate(-390,-222) scale(1,1)"><g><path fill="none" stroke="none"/><text fill="#000000" stroke="none" font-family="Arial" font-size="13px" font-style="normal" font-weight="bold" text-decoration="none" x="719.095947265625" y="496">Enroll IDP Biometrics</text></g></g><g transform="translate(-390,-222) scale(1,1)"><path fill="#C0C0C0" stroke="none" d="M 815 416 C 815 406.6111584 858.8760896 399 913 399 C 967.1239104 399 1011 406.6111584 1011 416 C 1011 425.3888416 967.1239104 433 913 433 C 858.8760896 433 815 425.3888416 815 416 Z" opacity="0.2"/></g><g transform="translate(-390,-222) scale(1,1)"><path fill="#ffffff" stroke="none" d="M 808 409 C 808 399.6111584 851.8760896 392 906 392 C 960.1239104 392 1004 399.6111584 1004 409 C 1004 418.3888416 960.1239104 426 906 426 C 851.8760896 426 808 418.3888416 808 409 Z"/></g><g transform="translate(-390,-222) scale(1,1)"><path fill="none" stroke="#000000" d="M 808 409 C 808 399.6111584 851.8760896 392 906 392 C 960.1239104 392 1004 399.6111584 1004 409 C 1004 418.3888416 960.1239104 426 906 426 C 851.8760896 426 808 418.3888416 808 409 Z" stroke-miterlimit="10"/></g><g transform="translate(-390,-222) scale(1,1)"><g><path fill="none" stroke="none"/><text fill="#000000" stroke="none" font-family="Arial" font-size="13px" font-style="normal" font-weight="bold" text-decoration="none" x="843.859619140625" y="416">Manage IDP Records</text></g></g><g transform="translate(-390,-222) scale(1,1)"><path fill="#C0C0C0" stroke="none" d="M 543 1192 C 543 1182.6111584 573.8923488 1175 612 1175 C 650.1076512 1175 681 1182.6111584 681 1192 C 681 1201.3888416 650.1076512 1209 612 1209 C 573.8923488 1209 543 1201.3888416 543 1192 Z" opacity="0.2"/></g><g transform="translate(-390,-222) scale(1,1)"><path fill="#ffffff" stroke="none" d="M 536 1185 C 536 1175.6111584 566.8923488 1168 605 1168 C 643.1076512 1168 674 1175.6111584 674 1185 C 674 1194.3888416 643.1076512 1202 605 1202 C 566.8923488 1202 536 1194.3888416 536 1185 Z"/></g><g transform="translate(-390,-222) scale(1,1)"><path fill="none" stroke="#000000" d="M 536 1185 C 536 1175.6111584 566.8923488 1168 605 1168 C 643.1076512 1168 674 1175.6111584 674 1185 C 674 1194.3888416 643.1076512 1202 605 1202 C 566.8923488 1202 536 1194.3888416 536 1185 Z" stroke-miterlimit="10"/></g><g transform="translate(-390,-222) scale(1,1)"><g><path fill="none" stroke="none"/><text fill="#000000" stroke="none" font-family="Arial" font-size="13px" font-style="normal" font-weight="bold" text-decoration="none" x="561.648681640625" y="1192">Manage NGOs</text></g></g><g transform="translate(-390,-222) scale(1,1)"><path fill="#C0C0C0" stroke="none" d="M 871 912 C 871 902.6111584 915.0999472 895 969.5 895 C 1023.9000528 895 1068 902.6111584 1068 912 C 1068 921.3888416 1023.9000528 929 969.5 929 C 915.0999472 929 871 921.3888416 871 912 Z" opacity="0.2"/></g><g transform="translate(-390,-222) scale(1,1)"><path fill="#ffffff" stroke="none" d="M 864 905 C 864 895.6111584 908.0999472 888 962.5 888 C 1016.9000528 888 1061 895.6111584 1061 905 C 1061 914.3888416 1016.9000528 922 962.5 922 C 908.0999472 922 864 914.3888416 864 905 Z"/></g><g transform="translate(-390,-222) scale(1,1)"><path fill="none" stroke="#000000" d="M 864 905 C 864 895.6111584 908.0999472 888 962.5 888 C 1016.9000528 888 1061 895.6111584 1061 905 C 1061 914.3888416 1016.9000528 922 962.5 922 C 908.0999472 922 864 914.3888416 864 905 Z" stroke-miterlimit="10"/></g><g transform="translate(-390,-222) scale(1,1)"><g><path fill="none" stroke="none"/><text fill="#000000" stroke="none" font-family="Arial" font-size="13px" font-style="normal" font-weight="bold" text-decoration="none" x="900.721435546875" y="912">Update Camp Details</text></g></g><g transform="translate(-390,-222) scale(1,1)"><path fill="#C0C0C0" stroke="none" d="M 927 496 C 927 486.6111584 966.3989376 479 1015 479 C 1063.6010624 479 1103 486.6111584 1103 496 C 1103 505.3888416 1063.6010624 513 1015 513 C 966.3989376 513 927 505.3888416 927 496 Z" opacity="0.2"/></g><g transform="translate(-390,-222) scale(1,1)"><path fill="#ffffff" stroke="none" d="M 920 489 C 920 479.6111584 959.3989376 472 1008 472 C 1056.6010624 472 1096 479.6111584 1096 489 C 1096 498.3888416 1056.6010624 506 1008 506 C 959.3989376 506 920 498.3888416 920 489 Z"/></g><g transform="translate(-390,-222) scale(1,1)"><path fill="none" stroke="#000000" d="M 920 489 C 920 479.6111584 959.3989376 472 1008 472 C 1056.6010624 472 1096 479.6111584 1096 489 C 1096 498.3888416 1056.6010624 506 1008 506 C 959.3989376 506 920 498.3888416 920 489 Z" stroke-miterlimit="10"/></g><g transform="translate(-390,-222) scale(1,1)"><g><path fill="none" stroke="none"/><text fill="#000000" stroke="none" font-family="Arial" font-size="13px" font-style="normal" font-weight="bold" text-decoration="none" x="952.724609375" y="496">Update IDP Details</text></g></g><g transform="translate(-390,-222) scale(1,1)"><path fill="#C0C0C0" stroke="none" d="M 807 1016 C 807 1006.6111584 847.0705104 999 896.5 999 C 945.9294896 999 986 1006.6111584 986 1016 C 986 1025.3888416 945.9294896 1033 896.5 1033 C 847.0705104 1033 807 1025.3888416 807 1016 Z" opacity="0.2"/></g><g transform="translate(-390,-222) scale(1,1)"><path fill="#ffffff" stroke="none" d="M 800 1009 C 800 999.6111584 840.0705104 992 889.5 992 C 938.9294896 992 979 999.6111584 979 1009 C 979 1018.3888416 938.9294896 1026 889.5 1026 C 840.0705104 1026 800 1018.3888416 800 1009 Z"/></g><g transform="translate(-390,-222) scale(1,1)"><path fill="none" stroke="#000000" d="M 800 1009 C 800 999.6111584 840.0705104 992 889.5 992 C 938.9294896 992 979 999.6111584 979 1009 C 979 1018.3888416 938.9294896 1026 889.5 1026 C 840.0705104 1026 800 1018.3888416 800 1009 Z" stroke-miterlimit="10"/></g><g transform="translate(-390,-222) scale(1,1)"><g><path fill="none" stroke="none"/><text fill="#000000" stroke="none" font-family="Arial" font-size="13px" font-style="normal" font-weight="bold" text-decoration="none" x="838.207763671875" y="1016">View User Details</text></g></g><g transform="translate(-390,-222) scale(1,1)"><path fill="#C0C0C0" stroke="none" d="M 871 856 C 871 846.6111584 906.1456432 839 949.5 839 C 992.8543568 839 1028 846.6111584 1028 856 C 1028 865.3888416 992.8543568 873 949.5 873 C 906.1456432 873 871 865.3888416 871 856 Z" opacity="0.2"/></g><g transform="translate(-390,-222) scale(1,1)"><path fill="#ffffff" stroke="none" d="M 864 849 C 864 839.6111584 899.1456432 832 942.5 832 C 985.8543568 832 1021 839.6111584 1021 849 C 1021 858.3888416 985.8543568 866 942.5 866 C 899.1456432 866 864 858.3888416 864 849 Z"/></g><g transform="translate(-390,-222) scale(1,1)"><path fill="none" stroke="#000000" d="M 864 849 C 864 839.6111584 899.1456432 832 942.5 832 C 985.8543568 832 1021 839.6111584 1021 849 C 1021 858.3888416 985.8543568 866 942.5 866 C 899.1456432 866 864 858.3888416 864 849 Z" stroke-miterlimit="10"/></g><g transform="translate(-390,-222) scale(1,1)"><g><path fill="none" stroke="none"/><text fill="#000000" stroke="none" font-family="Arial" font-size="13px" font-style="normal" font-weight="bold" text-decoration="none" x="893.37548828125" y="856">View IDP Camps</text></g></g><g transform="translate(-390,-222) scale(1,1)"><path fill="#C0C0C0" stroke="none" d="M 1143 496 C 1143 486.6111584 1180.8319344 479 1227.5 479 C 1274.1680656 479 1312 486.6111584 1312 496 C 1312 505.3888416 1274.1680656 513 1227.5 513 C 1180.8319344 513 1143 505.3888416 1143 496 Z" opacity="0.2"/></g><g transform="translate(-390,-222) scale(1,1)"><path fill="#ffffff" stroke="none" d="M 1136 489 C 1136 479.6111584 1173.8319344 472 1220.5 472 C 1267.1680656 472 1305 479.6111584 1305 489 C 1305 498.3888416 1267.1680656 506 1220.5 506 C 1173.8319344 506 1136 498.3888416 1136 489 Z"/></g><g transform="translate(-390,-222) scale(1,1)"><path fill="none" stroke="#000000" d="M 1136 489 C 1136 479.6111584 1173.8319344 472 1220.5 472 C 1267.1680656 472 1305 479.6111584 1305 489 C 1305 498.3888416 1267.1680656 506 1220.5 506 C 1173.8319344 506 1136 498.3888416 1136 489 Z" stroke-miterlimit="10"/></g><g transform="translate(-390,-222) scale(1,1)"><g><path fill="none" stroke="none"/><text fill="#000000" stroke="none" font-family="Arial" font-size="13px" font-style="normal" font-weight="bold" text-decoration="none" x="1167.760498046875" y="496">View IDP Records</text></g></g><g transform="translate(-390,-222) scale(1,1)"><path fill="#C0C0C0" stroke="none" d="M 807 1168 C 807 1158.6111584 847.294368 1151 897 1151 C 946.705632 1151 987 1158.6111584 987 1168 C 987 1177.3888416 946.705632 1185 897 1185 C 847.294368 1185 807 1177.3888416 807 1168 Z" opacity="0.2"/></g><g transform="translate(-390,-222) scale(1,1)"><path fill="#ffffff" stroke="none" d="M 800 1161 C 800 1151.6111584 840.294368 1144 890 1144 C 939.705632 1144 980 1151.6111584 980 1161 C 980 1170.3888416 939.705632 1178 890 1178 C 840.294368 1178 800 1170.3888416 800 1161 Z"/></g><g transform="translate(-390,-222) scale(1,1)"><path fill="none" stroke="#000000" d="M 800 1161 C 800 1151.6111584 840.294368 1144 890 1144 C 939.705632 1144 980 1151.6111584 980 1161 C 980 1170.3888416 939.705632 1178 890 1178 C 840.294368 1178 800 1170.3888416 800 1161 Z" stroke-miterlimit="10"/></g><g transform="translate(-390,-222) scale(1,1)"><g><path fill="none" stroke="none"/><text fill="#000000" stroke="none" font-family="Arial" font-size="13px" font-style="normal" font-weight="bold" text-decoration="none" x="833.2900390625" y="1168">View NGO Records</text></g></g><g transform="translate(-390,-222) scale(1,1)"><path fill="#C0C0C0" stroke="none" d="M 799 1056 C 799 1046.6111584 840.6375136 1039 892 1039 C 943.3624864 1039 985 1046.6111584 985 1056 C 985 1065.3888416 943.3624864 1073 892 1073 C 840.6375136 1073 799 1065.3888416 799 1056 Z" opacity="0.2"/></g><g transform="translate(-390,-222) scale(1,1)"><path fill="#ffffff" stroke="none" d="M 792 1049 C 792 1039.6111584 833.6375136 1032 885 1032 C 936.3624864 1032 978 1039.6111584 978 1049 C 978 1058.3888416 936.3624864 1066 885 1066 C 833.6375136 1066 792 1058.3888416 792 1049 Z"/></g><g transform="translate(-390,-222) scale(1,1)"><path fill="none" stroke="#000000" d="M 792 1049 C 792 1039.6111584 833.6375136 1032 885 1032 C 936.3624864 1032 978 1039.6111584 978 1049 C 978 1058.3888416 936.3624864 1066 885 1066 C 833.6375136 1066 792 1058.3888416 792 1049 Z" stroke-miterlimit="10"/></g><g transform="translate(-390,-222) scale(1,1)"><g><path fill="none" stroke="none"/><text fill="#000000" stroke="none" font-family="Arial" font-size="13px" font-style="normal" font-weight="bold" text-decoration="none" x="826.83642578125" y="1056">Update User Details</text></g></g><g transform="translate(-390,-222) scale(1,1)"><path fill="#C0C0C0" stroke="none" d="M 534 789 C 534 779.6111584 574.9659408 772 625.5 772 C 676.0340592 772 717 779.6111584 717 789 C 717 798.3888416 676.0340592 806 625.5 806 C 574.9659408 806 534 798.3888416 534 789 Z" opacity="0.2"/></g><g transform="translate(-390,-222) scale(1,1)"><path fill="#ffffff" stroke="none" d="M 527 782 C 527 772.6111584 567.9659408 765 618.5 765 C 669.0340592 765 710 772.6111584 710 782 C 710 791.3888416 669.0340592 799 618.5 799 C 567.9659408 799 527 791.3888416 527 782 Z"/></g><g transform="translate(-390,-222) scale(1,1)"><path fill="none" stroke="#000000" d="M 527 782 C 527 772.6111584 567.9659408 765 618.5 765 C 669.0340592 765 710 772.6111584 710 782 C 710 791.3888416 669.0340592 799 618.5 799 C 567.9659408 799 527 791.3888416 527 782 Z" stroke-miterlimit="10"/></g><g transform="translate(-390,-222) scale(1,1)"><g><path fill="none" stroke="none"/><text fill="#000000" stroke="none" font-family="Arial" font-size="13px" font-style="normal" font-weight="bold" text-decoration="none" x="559.974609375" y="789">Manage IDP Camps</text></g></g><g transform="translate(-390,-222) scale(1,1)"><path fill="#C0C0C0" stroke="none" d="M 807 1216 C 807 1206.6111584 848.8613712 1199 900.5 1199 C 952.1386288 1199 994 1206.6111584 994 1216 C 994 1225.3888416 952.1386288 1233 900.5 1233 C 848.8613712 1233 807 1225.3888416 807 1216 Z" opacity="0.2"/></g><g transform="translate(-390,-222) scale(1,1)"><path fill="#ffffff" stroke="none" d="M 800 1209 C 800 1199.6111584 841.8613712 1192 893.5 1192 C 945.1386288 1192 987 1199.6111584 987 1209 C 987 1218.3888416 945.1386288 1226 893.5 1226 C 841.8613712 1226 800 1218.3888416 800 1209 Z"/></g><g transform="translate(-390,-222) scale(1,1)"><path fill="none" stroke="#000000" d="M 800 1209 C 800 1199.6111584 841.8613712 1192 893.5 1192 C 945.1386288 1192 987 1199.6111584 987 1209 C 987 1218.3888416 945.1386288 1226 893.5 1226 C 841.8613712 1226 800 1218.3888416 800 1209 Z" stroke-miterlimit="10"/></g><g transform="translate(-390,-222) scale(1,1)"><g><path fill="none" stroke="none"/><text fill="#000000" stroke="none" font-family="Arial" font-size="13px" font-style="normal" font-weight="bold" text-decoration="none" x="834.254150390625" y="1216">Update NGO Details</text></g></g><g transform="translate(-390,-222) scale(1,1)"><path fill="none" stroke="#000000" d="M 807 426 L 728 440 L 637 471" stroke-miterlimit="10" stroke-dasharray="3"/></g><g transform="translate(-390,-222) scale(1,1)"><path fill="none" stroke="#000000" d="M 645.2623987825565 463.7382669865927 L 637 471 L 647.9772188649597 471.7075775510666" stroke-miterlimit="10"/></g><g transform="translate(-390,-222) scale(1,1)"><g><path fill="none" stroke="none"/><text fill="#000000" stroke="none" font-family="Arial" font-size="13px" font-style="normal" font-weight="normal" text-decoration="none" x="688" y="444">«include»</text></g></g><g transform="translate(-390,-222) scale(1,1)"><path fill="none" stroke="#000000" d="M 878 427 L 808 471" stroke-miterlimit="10" stroke-dasharray="3"/></g><g transform="translate(-390,-222) scale(1,1)"><path fill="none" stroke="#000000" d="M 814.3639064033692 462.02778203067066 L 808 471 L 818.8442775410555 469.1556452042623" stroke-miterlimit="10"/></g><g transform="translate(-390,-222) scale(1,1)"><g><path fill="none" stroke="none"/><text fill="#000000" stroke="none" font-family="Arial" font-size="13px" font-style="normal" font-weight="normal" text-decoration="none" x="792" y="452">«include»</text></g></g><g transform="translate(-390,-222) scale(1,1)"><path fill="none" stroke="#000000" d="M 929 427 L 985 471" stroke-miterlimit="10" stroke-dasharray="3"/></g><g transform="translate(-390,-222) scale(1,1)"><path fill="none" stroke="#000000" d="M 974.4081715950539 468.0313014568373 L 985 471 L 979.6096331808673 461.4112594385293" stroke-miterlimit="10"/></g><g transform="translate(-390,-222) scale(1,1)"><g><path fill="none" stroke="none"/><text fill="#000000" stroke="none" font-family="Arial" font-size="13px" font-style="normal" font-weight="normal" text-decoration="none" x="952" y="445">«include»</text></g></g><g transform="translate(-390,-222) scale(1,1)"><path fill="none" stroke="#000000" d="M 1005 427 L 1080 440 L 1169 471" stroke-miterlimit="10" stroke-dasharray="3"/></g><g transform="translate(-390,-222) scale(1,1)"><path fill="none" stroke="#000000" d="M 1158.018196130459 471.63244270170003 L 1169 471 L 1160.7874874911029 463.6818965372709" stroke-miterlimit="10"/></g><g transform="translate(-390,-222) scale(1,1)"><g><path fill="none" stroke="none"/><text fill="#000000" stroke="none" font-family="Arial" font-size="13px" font-style="normal" font-weight="normal" text-decoration="none" x="1064" y="437">«include»</text></g></g><g transform="translate(-390,-222) scale(1,1)"><path fill="none" stroke="#cc0066" d="M 440 784 L 440 600 L 560 600" stroke-miterlimit="10"/></g><g transform="translate(-390,-222) scale(1,1)"><path fill="none" stroke="#cc0066" d="M 408 803 L 400 803 L 400 408 L 808 408" stroke-miterlimit="10"/></g><g transform="translate(-390,-222) scale(1,1)"><path fill="none" stroke="#cc0066" d="M 457 817 L 536 817 L 536 799" stroke-miterlimit="10"/></g><g transform="translate(-390,-222) scale(1,1)"><path fill="none" stroke="#cc0066" d="M 432 863 L 432 1033 L 544 1033" stroke-miterlimit="10"/></g><g transform="translate(-390,-222) scale(1,1)"><path fill="none" stroke="#cc0066" d="M 453 863 L 453 1193 L 536 1193" stroke-miterlimit="10"/></g><g transform="translate(-390,-222) scale(1,1)"><path fill="none" stroke="#ffbf00" d="M 1344 407 L 1004 407" stroke-miterlimit="10"/></g><g transform="translate(-390,-222) scale(1,1)"><path fill="none" stroke="#0aa759" d="M 1384 896 L 1384 848 L 1021 848" stroke-miterlimit="10"/></g><g transform="translate(-390,-222) scale(1,1)"><path fill="none" stroke="#0aa759" d="M 1384 896 L 1384 488 L 1305 488" stroke-miterlimit="10"/></g><g transform="translate(-390,-222) scale(1,1)"><path fill="none" stroke="#0aa759" d="M 1376 975 L 1376 1161 L 980 1161" stroke-miterlimit="10"/></g><g transform="translate(-390,-222) scale(1,1)"><path fill="#C0C0C0" stroke="none" d="M 839 283 C 839 273.6111584 869.4446336 266 907 266 C 944.5553664 266 975 273.6111584 975 283 C 975 292.3888416 944.5553664 300 907 300 C 869.4446336 300 839 292.3888416 839 283 Z" opacity="0.2"/></g><g transform="translate(-390,-222) scale(1,1)"><path fill="#ffffff" stroke="none" d="M 832 276 C 832 266.6111584 862.4446336 259 900 259 C 937.5553664 259 968 266.6111584 968 276 C 968 285.3888416 937.5553664 293 900 293 C 862.4446336 293 832 285.3888416 832 276 Z"/></g><g transform="translate(-390,-222) scale(1,1)"><path fill="none" stroke="#000000" d="M 832 276 C 832 266.6111584 862.4446336 259 900 259 C 937.5553664 259 968 266.6111584 968 276 C 968 285.3888416 937.5553664 293 900 293 C 862.4446336 293 832 285.3888416 832 276 Z" stroke-miterlimit="10"/></g><g transform="translate(-390,-222) scale(1,1)"><g><path fill="none" stroke="none"/><text fill="#000000" stroke="none" font-family="Arial" font-size="13px" font-style="normal" font-weight="bold" text-decoration="none" x="860.24462890625" y="283">Log-in/Logout</text></g></g><g transform="translate(-390,-222) scale(1,1)"><path fill="none" stroke="#cc0066" d="M 408 784 L 400 784 L 400 280 L 832 280" stroke-miterlimit="10"/></g><g transform="translate(-390,-222) scale(1,1)"><path fill="none" stroke="#ffbf00" d="M 1380 360 L 1380 288 L 968 288" stroke-miterlimit="10"/></g><g transform="translate(-390,-222) scale(1,1)"><path fill="none" stroke="#0aa759" d="M 1430 935 L 1440 935 L 1440 256 L 964 256 L 964 259" stroke-miterlimit="10"/></g><g transform="translate(-390,-222) scale(1,1)"><path fill="#C0C0C0" stroke="none" d="M 567 656 C 567 646.6111584 610.652232 639 664.5 639 C 718.347768 639 762 646.6111584 762 656 C 762 665.3888416 718.347768 673 664.5 673 C 610.652232 673 567 665.3888416 567 656 Z" opacity="0.2"/></g><g transform="translate(-390,-222) scale(1,1)"><path fill="#ffffff" stroke="none" d="M 560 649 C 560 639.6111584 603.652232 632 657.5 632 C 711.347768 632 755 639.6111584 755 649 C 755 658.3888416 711.347768 666 657.5 666 C 603.652232 666 560 658.3888416 560 649 Z"/></g><g transform="translate(-390,-222) scale(1,1)"><path fill="none" stroke="#000000" d="M 560 649 C 560 639.6111584 603.652232 632 657.5 632 C 711.347768 632 755 639.6111584 755 649 C 755 658.3888416 711.347768 666 657.5 666 C 603.652232 666 560 658.3888416 560 649 Z" stroke-miterlimit="10"/></g><g transform="translate(-390,-222) scale(1,1)"><g><path fill="none" stroke="none"/><text fill="#000000" stroke="none" font-family="Arial" font-size="13px" font-style="normal" font-weight="bold" text-decoration="none" x="597.175048828125" y="656">Archive IPD Records</text></g></g><g transform="translate(-390,-222) scale(1,1)"><path fill="#C0C0C0" stroke="none" d="M 799 1096 C 799 1086.6111584 841.9806592 1079 895 1079 C 948.0193408 1079 991 1086.6111584 991 1096 C 991 1105.3888416 948.0193408 1113 895 1113 C 841.9806592 1113 799 1105.3888416 799 1096 Z" opacity="0.2"/></g><g transform="translate(-390,-222) scale(1,1)"><path fill="#ffffff" stroke="none" d="M 792 1089 C 792 1079.6111584 834.9806592 1072 888 1072 C 941.0193408 1072 984 1079.6111584 984 1089 C 984 1098.3888416 941.0193408 1106 888 1106 C 834.9806592 1106 792 1098.3888416 792 1089 Z"/></g><g transform="translate(-390,-222) scale(1,1)"><path fill="none" stroke="#000000" d="M 792 1089 C 792 1079.6111584 834.9806592 1072 888 1072 C 941.0193408 1072 984 1079.6111584 984 1089 C 984 1098.3888416 941.0193408 1106 888 1106 C 834.9806592 1106 792 1098.3888416 792 1089 Z" stroke-miterlimit="10"/></g><g transform="translate(-390,-222) scale(1,1)"><g><path fill="none" stroke="none"/><text fill="#000000" stroke="none" font-family="Arial" font-size="13px" font-style="normal" font-weight="bold" text-decoration="none" x="827.671875" y="1096">Delete User Records</text></g></g><g transform="translate(-390,-222) scale(1,1)"><path fill="#C0C0C0" stroke="none" d="M 815 1264 C 815 1254.6111584 858.2045168 1247 911.5 1247 C 964.7954832 1247 1008 1254.6111584 1008 1264 C 1008 1273.3888416 964.7954832 1281 911.5 1281 C 858.2045168 1281 815 1273.3888416 815 1264 Z" opacity="0.2"/></g><g transform="translate(-390,-222) scale(1,1)"><path fill="#ffffff" stroke="none" d="M 808 1257 C 808 1247.6111584 851.2045168 1240 904.5 1240 C 957.7954832 1240 1001 1247.6111584 1001 1257 C 1001 1266.3888416 957.7954832 1274 904.5 1274 C 851.2045168 1274 808 1266.3888416 808 1257 Z"/></g><g transform="translate(-390,-222) scale(1,1)"><path fill="none" stroke="#000000" d="M 808 1257 C 808 1247.6111584 851.2045168 1240 904.5 1240 C 957.7954832 1240 1001 1247.6111584 1001 1257 C 1001 1266.3888416 957.7954832 1274 904.5 1274 C 851.2045168 1274 808 1266.3888416 808 1257 Z" stroke-miterlimit="10"/></g><g transform="translate(-390,-222) scale(1,1)"><g><path fill="none" stroke="none"/><text fill="#000000" stroke="none" font-family="Arial" font-size="13px" font-style="normal" font-weight="bold" text-decoration="none" x="843.089599609375" y="1264">Delete NGO Records</text></g></g><g transform="translate(-390,-222) scale(1,1)"><path fill="none" stroke="#000000" d="M 681 1016 L 681 1008 L 800 1008" stroke-miterlimit="10" stroke-dasharray="3"/></g><g transform="translate(-390,-222) scale(1,1)"><path fill="none" stroke="#000000" d="M 789.8373251423759 1012.209517756016 L 800 1008 L 789.8373251423758 1003.790482243984" stroke-miterlimit="10"/></g><g transform="translate(-390,-222) scale(1,1)"><g><path fill="none" stroke="none"/><text fill="#000000" stroke="none" font-family="Arial" font-size="13px" font-style="normal" font-weight="normal" text-decoration="none" x="696" y="1028">«include»</text></g></g><g transform="translate(-390,-222) scale(1,1)"><path fill="none" stroke="#000000" d="M 681 1050 L 681 1056 L 792 1056" stroke-miterlimit="10" stroke-dasharray="3"/></g><g transform="translate(-390,-222) scale(1,1)"><path fill="none" stroke="#000000" d="M 781.8373251423759 1060.2095177560159 L 792 1056 L 781.8373251423758 1051.7904822439841" stroke-miterlimit="10"/></g><g transform="translate(-390,-222) scale(1,1)"><g><path fill="none" stroke="none"/><text fill="#000000" stroke="none" font-family="Arial" font-size="13px" font-style="normal" font-weight="normal" text-decoration="none" x="688" y="1076">«include»</text></g></g><g transform="translate(-390,-222) scale(1,1)"><path fill="none" stroke="#000000" d="M 612 1050 L 612 1089 L 792 1089" stroke-miterlimit="10" stroke-dasharray="3"/></g><g transform="translate(-390,-222) scale(1,1)"><path fill="none" stroke="#000000" d="M 781.8373251423759 1093.2095177560159 L 792 1089 L 781.8373251423758 1084.7904822439841" stroke-miterlimit="10"/></g><g transform="translate(-390,-222) scale(1,1)"><g><path fill="none" stroke="none"/><text fill="#000000" stroke="none" font-family="Arial" font-size="13px" font-style="normal" font-weight="normal" text-decoration="none" x="585" y="1066">«include»</text></g></g><g transform="translate(-390,-222) scale(1,1)"><path fill="none" stroke="#000000" d="M 663 1167 L 712 1152 L 799 1156" stroke-miterlimit="10" stroke-dasharray="3"/></g><g transform="translate(-390,-222) scale(1,1)"><path fill="none" stroke="#000000" d="M 788.6547127005687 1159.7383192335894 L 799 1156 L 789.0413863169379 1151.3281680775603" stroke-miterlimit="10"/></g><g transform="translate(-390,-222) scale(1,1)"><g><path fill="none" stroke="none"/><text fill="#000000" stroke="none" font-family="Arial" font-size="13px" font-style="normal" font-weight="normal" text-decoration="none" x="704" y="1172">«include»</text></g></g><g transform="translate(-390,-222) scale(1,1)"><path fill="none" stroke="#000000" d="M 675 1191 L 799 1201" stroke-miterlimit="10" stroke-dasharray="3"/></g><g transform="translate(-390,-222) scale(1,1)"><path fill="none" stroke="#000000" d="M 788.5318333406426 1204.3789771813254 L 799 1201 L 789.2085906901876 1195.9871860469673" stroke-miterlimit="10"/></g><g transform="translate(-390,-222) scale(1,1)"><g><path fill="none" stroke="none"/><text fill="#000000" stroke="none" font-family="Arial" font-size="13px" font-style="normal" font-weight="normal" text-decoration="none" x="680" y="1213">«include»</text></g></g><g transform="translate(-390,-222) scale(1,1)"><path fill="none" stroke="#000000" d="M 605 1203 L 605 1252 L 807 1255" stroke-miterlimit="10" stroke-dasharray="3"/></g><g transform="translate(-390,-222) scale(1,1)"><path fill="none" stroke="#000000" d="M 796.7759350334529 1259.0581394209446 L 807 1255 L 796.9009564273123 1250.6400322344132" stroke-miterlimit="10"/></g><g transform="translate(-390,-222) scale(1,1)"><g><path fill="none" stroke="none"/><text fill="#000000" stroke="none" font-family="Arial" font-size="13px" font-style="normal" font-weight="normal" text-decoration="none" x="648" y="1245">«include»</text></g></g><g transform="translate(-390,-222) scale(1,1)"><path fill="none" stroke="#000000" d="M 710 768 L 792 768 L 792 800 L 872 800" stroke-miterlimit="10" stroke-dasharray="3"/></g><g transform="translate(-390,-222) scale(1,1)"><path fill="none" stroke="#000000" d="M 861.8373251423759 804.209517756016 L 872 800 L 861.8373251423758 795.790482243984" stroke-miterlimit="10"/></g><g transform="translate(-390,-222) scale(1,1)"><g><path fill="none" stroke="none"/><text fill="#000000" stroke="none" font-family="Arial" font-size="13px" font-style="normal" font-weight="normal" text-decoration="none" x="720" y="788">«include»</text></g></g><g transform="translate(-390,-222) scale(1,1)"><path fill="none" stroke="#000000" d="M 705 799 L 705 833 L 864 833" stroke-miterlimit="10" stroke-dasharray="3"/></g><g transform="translate(-390,-222) scale(1,1)"><path fill="none" stroke="#000000" d="M 853.8373251423759 837.209517756016 L 864 833 L 853.8373251423758 828.790482243984" stroke-miterlimit="10"/></g><g transform="translate(-390,-222) scale(1,1)"><g><path fill="none" stroke="none"/><text fill="#000000" stroke="none" font-family="Arial" font-size="13px" font-style="normal" font-weight="normal" text-decoration="none" x="720" y="852">«include»</text></g></g><g transform="translate(-390,-222) scale(1,1)"><path fill="none" stroke="#000000" d="M 665 799 L 665 913 L 864 913" stroke-miterlimit="10" stroke-dasharray="3"/></g><g transform="translate(-390,-222) scale(1,1)"><path fill="none" stroke="#000000" d="M 853.8373251423759 917.209517756016 L 864 913 L 853.8373251423758 908.790482243984" stroke-miterlimit="10"/></g><g transform="translate(-390,-222) scale(1,1)"><g><path fill="none" stroke="none"/><text fill="#000000" stroke="none" font-family="Arial" font-size="13px" font-style="normal" font-weight="normal" text-decoration="none" x="638" y="890">«include»</text></g></g><g transform="translate(-390,-222) scale(1,1)"><path fill="none" stroke="#cc0066" d="M 440 784 L 440 648 L 560 648" stroke-miterlimit="10"/></g><g transform="translate(-390,-222) scale(1,1)"><path fill="#C0C0C0" stroke="none" d="M 855 624 C 855 614.6111584 881.6390544 607 914.5 607 C 947.3609456 607 974 614.6111584 974 624 C 974 633.3888416 947.3609456 641 914.5 641 C 881.6390544 641 855 633.3888416 855 624 Z" opacity="0.2"/></g><g transform="translate(-390,-222) scale(1,1)"><path fill="#ffffff" stroke="none" d="M 848 617 C 848 607.6111584 874.6390544 600 907.5 600 C 940.3609456 600 967 607.6111584 967 617 C 967 626.3888416 940.3609456 634 907.5 634 C 874.6390544 634 848 626.3888416 848 617 Z"/></g><g transform="translate(-390,-222) scale(1,1)"><path fill="none" stroke="#000000" d="M 848 617 C 848 607.6111584 874.6390544 600 907.5 600 C 940.3609456 600 967 607.6111584 967 617 C 967 626.3888416 940.3609456 634 907.5 634 C 874.6390544 634 848 626.3888416 848 617 Z" stroke-miterlimit="10"/></g><g transform="translate(-390,-222) scale(1,1)"><g><path fill="none" stroke="none"/><text fill="#000000" stroke="none" font-family="Arial" font-size="13px" font-style="normal" font-weight="bold" text-decoration="none" x="871.369140625" y="624">Validate IDP</text></g></g><g transform="translate(-390,-222) scale(1,1)"><path fill="none" stroke="#000000" d="M 906 427 L 907 599" stroke-miterlimit="10" stroke-dasharray="3"/></g><g transform="translate(-390,-222) scale(1,1)"><path fill="none" stroke="#000000" d="M 902.7314690669938 588.8619704244874 L 907 599 L 911.1503622922814 588.813023370852" stroke-miterlimit="10"/></g><g transform="translate(-390,-222) scale(1,1)"><g><path fill="none" stroke="none"/><text fill="#000000" stroke="none" font-family="Arial" font-size="13px" font-style="normal" font-weight="normal" text-decoration="none" x="912" y="572">«include»</text></g></g></g></svg>